# xmcd
#
# Track frame offsets:
#	150
#	11487
#	24757
#	37975
#	53517
#	66617
#	81005
#	94352
#	107772
#	121500
#	136187
#	147007
#	159390
#	175045
#	187357
#	197500
#	208210
#	220362
#	233807
#	246934
#	259205
#	271337
#	287067
#	300360
#	314182
#	323345
#	334802
#
# Disc length: 4608 seconds
#
# Revision: 1
# Processed by: cddbd v1.5.2PL0 Copyright (c) Steve Scherf et al.
# Submitted via: audiograbber 1.83.01
#
DISCID=8111fe1b
DTITLE=Barbara McNair - You're Gonna Love
DYEAR=1997
DGENRE=Soul
TTITLE0=He's A King
TTITLE1=You're Gonna Love My Baby
TTITLE2=Here I Am Baby
TTITLE3=Everything's Good About You
TTITLE4=Steal Away Tonight
TTITLE5=My World Is Empty Without You
TTITLE6=Message To Michael
TTITLE7=For Once In My Life
TTITLE8=The Shadow Of Your Smile
TTITLE9=I Will Wait For You
TTITLE10=The Sweetheart Tree
TTITLE11=What A Day
TTITLE12=Fancy Passes
TTITLE13=I Hear A Symphony
TTITLE14=When I'm Gone
TTITLE15=It Happens Every Time
TTITLE16=Just One Teardrop (From A Broken Heart)
TTITLE17=If You Can Want
TTITLE18=Where Would I Be Without You
TTITLE19=You Could Never Love Him
TTITLE20=Who Invented Heartache
TTITLE21=The Hunter Gets Captured By The Game
TTITLE22=Forget You Ever Met Me Baby
TTITLE23=The Touch Of Time
TTITLE24=Flipped Over You
TTITLE25=Murray What's Your Hurry
TTITLE26=Whatever Lola Wants
EXTD=
EXTT0=
EXTT1=
EXTT2=
EXTT3=
EXTT4=
EXTT5=
EXTT6=
EXTT7=
EXTT8=
EXTT9=
EXTT10=
EXTT11=
EXTT12=
EXTT13=
EXTT14=
EXTT15=
EXTT16=
EXTT17=
EXTT18=
EXTT19=
EXTT20=
EXTT21=
EXTT22=
EXTT23=
EXTT24=
EXTT25=
EXTT26=
PLAYORDER=
